:SAMPLES-PER-SECOND 30
:FULLY-SPECIFIED
:DEGREES
627
root  61.8563 36.7215 20.8464 175.493 -11.8879 -179.836
RightUpLeg  -5.00458 -34.8832 -25.5497
RightLeg  22.4985 -13.0813 -6.09477
RightFoot  -0.736664 -0.828578 8.88143
RightToes  5.82063e-011 0 -3.6325e-017
Spine  25.0551 -0.213897 -0.582099
Spine1  4.50572 -1.34585 4.15466
HEad  -46.9544 30.1482 -37.5769
LeftShoulder1  1.5806 -3.6355 -15.3208
LeftArm  -11.7308 -52.6918 -46.9534
LeftForeArm  -4.10809 -57.4064 -18.2492
LeftHand  -0.095692 7.63896 -2.47682
RightShoulder  0.58896 -0.924084 16.2787
RightArm  -36.0798 22.5099 13.3344
RightForeArm  -13.3561 71.2205 39.4387
RightHand  -0.201644 2.87915 -3.01018
LeftUpLeg  -25.869 46.8429 -0.555869
LeftLeg  35.4822 10.687 8.44732
LeftFoot  -8.04 -0.142291 6.62837
LeftToes  1.68253e-010 -3.2327e-011 -2.69673e-012
628
root  61.3156 36.6844 20.6425 174.609 -15.7283 -179.666
RightUpLeg  -3.38658 -27.0336 -26.0889
RightLeg  22.685 -10.691 -5.07256
RightFoot  -3.79639 -0.599699 8.63171
RightToes  5.82063e-011 0 -3.6325e-017
Spine  24.7934 0.265093 -0.878498
Spine1  4.83105 -0.796885 3.44109
HEad  -44.0665 29.5121 -34.9774
LeftShoulder1  1.58332 -3.27675 -16.683
LeftArm  -10.7144 -51.9721 -46.2708
LeftForeArm  -4.14537 -58.0876 -18.783
LeftHand  -0.065505 7.05904 -1.63039
RightShoulder  0.578573 -1.00635 16.6475
RightArm  -34.9057 22.7848 13.9851
RightForeArm  -15.1123 70.5627 37.7887
RightHand  -0.30721 3.72918 -4.15958
LeftUpLeg  -24.6014 44.4351 -0.739378
LeftLeg  35.9532 9.48382 7.68479
LeftFoot  -9.38389 -0.0639213 7.02528
LeftToes  1.68253e-010 -3.2327e-011 -2.69673e-012
629
root  60.8349 36.6823 20.4261 173.924 -19.8696 -179.379
RightUpLeg  -3.48658 -18.3517 -25.0278
RightLeg  25.5063 -6.22544 -3.41946
RightFoot  -4.58076 -0.365293 5.75458
RightToes  5.82063e-011 0 -3.6325e-017
Spine  24.684 0.411542 -1.0532
Spine1  4.69675 -0.611519 2.94983
HEad  -41.2979 28.8834 -32.0567
LeftShoulder1  1.4766 -2.44956 -18.1924
LeftArm  -10.2477 -50.8303 -45.2937
LeftForeArm  -3.32318 -59.1353 -19.5627
LeftHand  -0.100702 7.88018 -2.44519
RightShoulder  0.669209 -0.621732 16.6817
RightArm  -33.9826 23.0555 15.2913
RightForeArm  -14.8895 69.9397 36.1727
RightHand  -0.118353 3.18238 -1.83502
LeftUpLeg  -23.5975 41.7447 -1.08156
LeftLeg  36.2326 8.3584 6.89831
LeftFoot  -10.4894 0.00958137 7.22943
LeftToes  1.68253e-010 -3.2327e-011 -2.69673e-012
630
root  60.5098 36.6166 20.158 173.318 -24.1567 -179.297
RightUpLeg  -4.62882 -10.6751 -23.0616
RightLeg  31.4015 -1.92577 -1.48241
RightFoot  -6.65567 -0.349638 7.39387
RightToes  5.82063e-011 0 -3.6325e-017
Spine  24.2109 1.0867 -1.45949
Spine1  5.39219 0.0908504 2.1033
HEad  -38.2566 26.7671 -28.9419
LeftShoulder1  1.47051 -2.49632 -17.8916
LeftArm  -9.88647 -49.6439 -45.7007
LeftForeArm  -3.01461 -59.8767 -20.1795
LeftHand  -0.0538428 6.81671 -1.29802
RightShoulder  0.610378 -0.907124 17.0245
RightArm  -33.373 23.1962 15.5651
RightForeArm  -15.4553 69.4467 35.0655
RightHand  -0.0436324 2.9902 -0.831585
LeftUpLeg  -22.6547 38.7847 -1.34247
LeftLeg  36.7207 7.18912 6.10406
LeftFoot  -11.5525 0.0825653 7.36209
LeftToes  1.68253e-010 -3.2327e-011 -2.69673e-012
631
root  60.1895 36.5771 19.8601 172.701 -28.995 -179.306
RightUpLeg  -6.08225 -6.63217 -20.9385
RightLeg  38.6363 0.378239 0.0180677
RightFoot  -7.84911 -0.286216 7.59979
RightToes  5.82063e-011 0 -3.6325e-017
Spine  23.9526 1.34888 -1.94568
Spine1  5.98235 0.302012 1.48072
HEad  -35.3025 25.5453 -25.9217
LeftShoulder1  1.41071 -2.22082 -18.0605
LeftArm  -9.99481 -48.6375 -45.5156
LeftForeArm  -2.14858 -60.6326 -20.7912
LeftHand  -0.0585416 6.73723 -1.67731
RightShoulder  0.581439 -1.08747 17.6366
RightArm  -32.042 24.0692 15.4715
RightForeArm  -17.1639 68.9765 34.1777
RightHand  -0.228853 3.65065 -3.14315
LeftUpLeg  -21.5907 35.3322 -1.79829
LeftLeg  37.1254 6.24174 5.43773
LeftFoot  -12.4584 0.145351 7.18255
LeftToes  1.68253e-010 -3.2327e-011 -2.69673e-012
632
root  59.8734 36.6352 19.5305 172.043 -34.4823 -179.231
RightUpLeg  -7.57097 -5.58787 -18.7403
RightLeg  45.6073 -0.471978 -0.872007
RightFoot  -8.47522 -0.237264 7.18003
RightToes  5.82063e-011 0 -3.6325e-017
Spine  23.9984 1.59551 -2.77268
Spine1  6.05567 0.130214 2.41636
HEad  -32.9507 23.8076 -23.3389
LeftShoulder1  1.36954 -1.82556 -19.165
LeftArm  -9.72387 -47.681 -45.3517
LeftForeArm  -0.893942 -61.4246 -21.4318
LeftHand  -0.0629785 6.82908 -1.69112
RightShoulder  0.550223 -1.19693 17.4281
RightArm  -30.7255 24.3549 15.3271
RightForeArm  -20.1993 68.7498 33.9671
RightHand  -0.409713 4.74538 -5.01708
LeftUpLeg  -20.1514 32.0096 -2.22433
LeftLeg  36.8798 4.67023 4.13992
LeftFoot  -12.8386 0.177032 7.6009
LeftToes  1.68253e-010 -3.2327e-011 -2.69673e-012
633
root  59.5386 36.7082 19.1704 171.318 -40.0682 -178.86
RightUpLeg  -9.40899 -6.0985 -16.387
RightLeg  51.5256 -2.45043 -3.67132
RightFoot  -8.97615 -0.202845 6.86238
RightToes  5.82063e-011 0 -3.6325e-017
Spine  23.6568 1.48706 -2.50781
Spine1  6.50528 0.129601 2.16563
HEad  -30.1298 22.1343 -20.3476
LeftShoulder1  1.37315 -1.85723 -19.1072
LeftArm  -9.95647 -46.7722 -45.6729
LeftForeArm  -0.0935149 -61.6902 -21.618
LeftHand  -0.0450761 5.99164 -2.58968
RightShoulder  0.544048 -1.24319 17.6728
RightArm  -29.8308 24.483 15.4243
RightForeArm  -20.128 68.6026 33.653
RightHand  -0.312858 5.24312 -3.71515
LeftUpLeg  -18.7113 28.8371 -2.45624
LeftLeg  36.5283 2.75789 2.58359
LeftFoot  -13.2966 0.215972 7.96793
LeftToes  1.68253e-010 -3.2327e-011 -2.69673e-012
